<?xml version="1.0" encoding="UTF-8" standalone="no"?>
<svg
   viewBox="0 0 27.111523 27.11153"
   version="1.1"
   xmlns="http://www.w3.org/2000/svg"
   xmlns:svg="http://www.w3.org/2000/svg">
  <g
     transform="translate(-60.301382,-179.20614)">
    <path
       id="path24112-06"
       style="fill:#121d27;fill-opacity:1;stroke-width:0.140009"
       d="m 73.857144,179.20614 a 13.555878,13.555878 0 0 0 -13.555762,13.55577 13.555878,13.555878 0 0 0 13.555762,13.55576 13.555878,13.555878 0 0 0 13.55576,-13.55576 13.555878,13.555878 0 0 0 -13.55576,-13.55577 z m -1.682067,3.62614 h 2.351278 l -0.02429,1.94148 c 1.358514,0.1045 2.403703,0.5627 3.135209,1.37459 0.739545,0.80386 1.109493,1.86495 1.109493,3.18327 0,1.06109 -0.30581,2.0093 -0.916741,2.84531 -0.60289,0.83601 -1.294035,1.61592 -2.073775,2.33939 -0.7717,0.72347 -1.157552,1.75224 -1.157552,3.08663 h -2.254642 l -0.120922,-10.45414 c -0.683276,0.42604 -1.024745,1.07717 -1.024745,1.95337 h -2.23087 c 0.01609,-1.06109 0.321887,-1.94516 0.916739,-2.65255 0.594852,-0.71543 1.366557,-1.20596 2.315104,-1.47123 z m 2.303219,3.90674 -0.07235,6.24613 c 0.60289,-0.60289 1.104958,-1.14986 1.506884,-1.64021 0.401926,-0.49035 0.603065,-1.14148 0.603065,-1.95337 0,-1.55144 -0.67909,-2.43551 -2.037601,-2.65255 z m -0.892453,13.39608 c 0.426043,0 0.751605,0.12494 0.976683,0.37414 0.233119,0.24919 0.349851,0.55448 0.349851,0.91622 0,0.34566 -0.116732,0.64326 -0.349851,0.89245 -0.225078,0.2492 -0.55064,0.37362 -0.976683,0.37362 -0.434081,0 -0.763492,-0.12442 -0.988571,-0.37362 -0.21704,-0.24919 -0.325561,-0.54679 -0.325561,-0.89245 0,-0.36174 0.108521,-0.66703 0.325561,-0.91622 0.225079,-0.2492 0.55449,-0.37414 0.988571,-0.37414 z" />
  </g>
</svg>
