<?xml version="1.0" encoding="UTF-8" standalone="no"?>
<!-- Created with Inkscape (http://www.inkscape.org/) -->

<svg
   viewBox="0 0 27.11204 27.11204"
   version="1.1"
   xmlns="http://www.w3.org/2000/svg"
   xmlns:svg="http://www.w3.org/2000/svg">
  <g
     id="layer1"
     transform="translate(-48.253504,-82.824931)">
    <path
       id="path24112-0"
       style="fill:#ffffff;fill-opacity:1;stroke-width:0.140009"
       d="M 61.809267,82.824931 A 13.555878,13.555878 0 0 0 48.253504,96.380694 13.555878,13.555878 0 0 0 61.809267,109.93697 13.555878,13.555878 0 0 0 75.365543,96.380694 13.555878,13.555878 0 0 0 61.809267,82.824931 Z m -1.681551,3.626136 h 2.351278 l -0.02429,1.941484 c 1.358514,0.104502 2.403184,0.5627 3.134693,1.374595 0.739545,0.803851 1.109494,1.864947 1.109491,3.183268 0,1.061087 -0.305292,2.009812 -0.916223,2.845821 -0.60289,0.836007 -1.294553,1.615406 -2.074291,2.338874 -0.7717,0.723469 -1.157036,1.752751 -1.157036,3.087151 H 60.296181 L 60.175775,90.768117 c -0.683276,0.426043 -1.024745,1.077169 -1.024745,1.953369 h -2.230871 c 0.01609,-1.061088 0.321371,-1.945677 0.916223,-2.653067 0.594852,-0.715431 1.366557,-1.205439 2.315104,-1.470713 z m 2.3027,3.90674 -0.07234,6.24613 c 0.60289,-0.602891 1.105474,-1.149343 1.5074,-1.639695 0.401929,-0.490349 0.602547,-1.141476 0.602547,-1.953368 0,-1.551438 -0.679088,-2.436027 -2.037602,-2.653067 z M 61.538482,103.7544 c 0.426043,0 0.751605,0.12443 0.976683,0.37362 0.233119,0.2492 0.349335,0.55449 0.349335,0.91623 0,0.34565 -0.116216,0.64326 -0.349335,0.89245 -0.225078,0.2492 -0.55064,0.37362 -0.976683,0.37362 -0.434081,0 -0.764008,-0.12442 -0.989086,-0.37362 -0.217041,-0.24919 -0.325562,-0.5468 -0.325562,-0.89245 0,-0.36174 0.108521,-0.66703 0.325562,-0.91623 0.225078,-0.24919 0.555005,-0.37362 0.989086,-0.37362 z" />
  </g>
</svg>
