<?xml version="1.0" encoding="UTF-8"?>
<svg xmlns="http://www.w3.org/2000/svg" xmlns:xlink="http://www.w3.org/1999/xlink" width="504pt" height="360pt" viewBox="0 0 504 360" version="1.1">
<defs>
<clipPath id="clip1">
  <path d="M 67 59.039062 L 69 59.039062 L 69 286.558594 L 67 286.558594 Z M 67 59.039062 "/>
</clipPath>
<clipPath id="clip2">
  <path d="M 132 59.039062 L 134 59.039062 L 134 286.558594 L 132 286.558594 Z M 132 59.039062 "/>
</clipPath>
<clipPath id="clip3">
  <path d="M 197 59.039062 L 199 59.039062 L 199 286.558594 L 197 286.558594 Z M 197 59.039062 "/>
</clipPath>
<clipPath id="clip4">
  <path d="M 262 59.039062 L 264 59.039062 L 264 286.558594 L 262 286.558594 Z M 262 59.039062 "/>
</clipPath>
<clipPath id="clip5">
  <path d="M 327 59.039062 L 329 59.039062 L 329 286.558594 L 327 286.558594 Z M 327 59.039062 "/>
</clipPath>
<clipPath id="clip6">
  <path d="M 392 59.039062 L 394 59.039062 L 394 286.558594 L 392 286.558594 Z M 392 59.039062 "/>
</clipPath>
<clipPath id="clip7">
  <path d="M 458 59.039062 L 459 59.039062 L 459 286.558594 L 458 286.558594 Z M 458 59.039062 "/>
</clipPath>
<clipPath id="clip8">
  <path d="M 59.039062 283 L 473.757812 283 L 473.757812 285 L 59.039062 285 Z M 59.039062 283 "/>
</clipPath>
<clipPath id="clip9">
  <path d="M 59.039062 238 L 473.757812 238 L 473.757812 240 L 59.039062 240 Z M 59.039062 238 "/>
</clipPath>
<clipPath id="clip10">
  <path d="M 59.039062 193 L 473.757812 193 L 473.757812 195 L 59.039062 195 Z M 59.039062 193 "/>
</clipPath>
<clipPath id="clip11">
  <path d="M 59.039062 148 L 473.757812 148 L 473.757812 150 L 59.039062 150 Z M 59.039062 148 "/>
</clipPath>
<clipPath id="clip12">
  <path d="M 59.039062 103 L 473.757812 103 L 473.757812 105 L 59.039062 105 Z M 59.039062 103 "/>
</clipPath>
<clipPath id="clip13">
  <path d="M 59.039062 59.039062 L 473.757812 59.039062 L 473.757812 60 L 59.039062 60 Z M 59.039062 59.039062 "/>
</clipPath>
</defs>
<g id="surface50">
<path style="fill-rule:nonzero;fill:rgb(64.313725%,73.72549%,74.901961%);fill-opacity:1;stroke-width:0.75;stroke-linecap:round;stroke-linejoin:round;stroke:rgb(6.666667%,9.019608%,9.803922%);stroke-opacity:1;stroke-miterlimit:10;" d="M 74.398438 284.308594 L 106.941406 284.308594 L 106.941406 261.78125 L 74.398438 261.78125 Z M 74.398438 284.308594 "/>
<path style="fill-rule:nonzero;fill:rgb(41.960784%,76.862745%,56.078431%);fill-opacity:1;stroke-width:0.75;stroke-linecap:round;stroke-linejoin:round;stroke:rgb(6.666667%,9.019608%,9.803922%);stroke-opacity:1;stroke-miterlimit:10;" d="M 113.449219 284.308594 L 145.992188 284.308594 L 145.992188 239.253906 L 113.449219 239.253906 Z M 113.449219 284.308594 "/>
<path style="fill-rule:nonzero;fill:rgb(26.27451%,36.470588%,39.215686%);fill-opacity:1;stroke-width:0.75;stroke-linecap:round;stroke-linejoin:round;stroke:rgb(6.666667%,9.019608%,9.803922%);stroke-opacity:1;stroke-miterlimit:10;" d="M 152.5 284.308594 L 185.042969 284.308594 L 185.042969 216.726562 L 152.5 216.726562 Z M 152.5 284.308594 "/>
<path style="fill-rule:nonzero;fill:rgb(12.941176%,17.647059%,19.215686%);fill-opacity:1;stroke-width:0.75;stroke-linecap:round;stroke-linejoin:round;stroke:rgb(6.666667%,9.019608%,9.803922%);stroke-opacity:1;stroke-miterlimit:10;" d="M 191.550781 284.308594 L 224.09375 284.308594 L 224.09375 194.203125 L 191.550781 194.203125 Z M 191.550781 284.308594 "/>
<path style="fill-rule:nonzero;fill:rgb(32.941176%,32.941176%,30.980392%);fill-opacity:1;stroke-width:0.75;stroke-linecap:round;stroke-linejoin:round;stroke:rgb(6.666667%,9.019608%,9.803922%);stroke-opacity:1;stroke-miterlimit:10;" d="M 230.601562 284.308594 L 263.144531 284.308594 L 263.144531 171.675781 L 230.601562 171.675781 Z M 230.601562 284.308594 "/>
<path style="fill-rule:nonzero;fill:rgb(59.607843%,47.45098%,43.529412%);fill-opacity:1;stroke-width:0.75;stroke-linecap:round;stroke-linejoin:round;stroke:rgb(6.666667%,9.019608%,9.803922%);stroke-opacity:1;stroke-miterlimit:10;" d="M 269.652344 284.308594 L 302.195312 284.308594 L 302.195312 149.148438 L 269.652344 149.148438 Z M 269.652344 284.308594 "/>
<path style="fill-rule:nonzero;fill:rgb(68.235294%,63.921569%,60.392157%);fill-opacity:1;stroke-width:0.75;stroke-linecap:round;stroke-linejoin:round;stroke:rgb(6.666667%,9.019608%,9.803922%);stroke-opacity:1;stroke-miterlimit:10;" d="M 308.707031 284.308594 L 341.25 284.308594 L 341.25 126.621094 L 308.707031 126.621094 Z M 308.707031 284.308594 "/>
<path style="fill-rule:nonzero;fill:rgb(22.745098%,69.803922%,39.215686%);fill-opacity:1;stroke-width:0.75;stroke-linecap:round;stroke-linejoin:round;stroke:rgb(6.666667%,9.019608%,9.803922%);stroke-opacity:1;stroke-miterlimit:10;" d="M 347.757812 284.308594 L 380.300781 284.308594 L 380.300781 104.09375 L 347.757812 104.09375 Z M 347.757812 284.308594 "/>
<path style="fill-rule:nonzero;fill:rgb(92.941176%,80.392157%,21.568627%);fill-opacity:1;stroke-width:0.75;stroke-linecap:round;stroke-linejoin:round;stroke:rgb(6.666667%,9.019608%,9.803922%);stroke-opacity:1;stroke-miterlimit:10;" d="M 386.808594 284.308594 L 419.351562 284.308594 L 419.351562 81.566406 L 386.808594 81.566406 Z M 386.808594 284.308594 "/>
<path style="fill-rule:nonzero;fill:rgb(96.470588%,12.156863%,19.607843%);fill-opacity:1;stroke-width:0.75;stroke-linecap:round;stroke-linejoin:round;stroke:rgb(6.666667%,9.019608%,9.803922%);stroke-opacity:1;stroke-miterlimit:10;" d="M 425.859375 284.308594 L 458.402344 284.308594 L 458.402344 59.042969 L 425.859375 59.042969 Z M 425.859375 284.308594 "/>
<path style="fill:none;stroke-width:0.75;stroke-linecap:round;stroke-linejoin:round;stroke:rgb(6.666667%,9.019608%,9.803922%);stroke-opacity:1;stroke-miterlimit:10;" d="M 59.039062 284.308594 L 59.039062 59.039062 "/>
<path style="fill:none;stroke-width:0.75;stroke-linecap:round;stroke-linejoin:round;stroke:rgb(6.666667%,9.019608%,9.803922%);stroke-opacity:1;stroke-miterlimit:10;" d="M 59.039062 284.308594 L 51.839844 284.308594 "/>
<path style="fill:none;stroke-width:0.75;stroke-linecap:round;stroke-linejoin:round;stroke:rgb(6.666667%,9.019608%,9.803922%);stroke-opacity:1;stroke-miterlimit:10;" d="M 59.039062 239.253906 L 51.839844 239.253906 "/>
<path style="fill:none;stroke-width:0.75;stroke-linecap:round;stroke-linejoin:round;stroke:rgb(6.666667%,9.019608%,9.803922%);stroke-opacity:1;stroke-miterlimit:10;" d="M 59.039062 194.199219 L 51.839844 194.199219 "/>
<path style="fill:none;stroke-width:0.75;stroke-linecap:round;stroke-linejoin:round;stroke:rgb(6.666667%,9.019608%,9.803922%);stroke-opacity:1;stroke-miterlimit:10;" d="M 59.039062 149.148438 L 51.839844 149.148438 "/>
<path style="fill:none;stroke-width:0.75;stroke-linecap:round;stroke-linejoin:round;stroke:rgb(6.666667%,9.019608%,9.803922%);stroke-opacity:1;stroke-miterlimit:10;" d="M 59.039062 104.09375 L 51.839844 104.09375 "/>
<path style="fill:none;stroke-width:0.75;stroke-linecap:round;stroke-linejoin:round;stroke:rgb(6.666667%,9.019608%,9.803922%);stroke-opacity:1;stroke-miterlimit:10;" d="M 59.039062 59.039062 L 51.839844 59.039062 "/>
<path style=" stroke:none;fill-rule:nonzero;fill:rgb(6.666667%,9.019608%,9.803922%);fill-opacity:1;" d="M 38.121094 282.023438 L 38.488281 282.03125 L 38.839844 282.046875 L 39.167969 282.074219 L 39.480469 282.113281 L 39.769531 282.164062 L 40.042969 282.222656 L 40.296875 282.296875 L 40.53125 282.378906 L 40.75 282.472656 L 40.945312 282.574219 L 41.121094 282.691406 L 41.28125 282.820312 L 41.421875 282.960938 L 41.542969 283.117188 L 41.644531 283.285156 L 41.726562 283.460938 L 41.792969 283.652344 L 41.839844 283.859375 L 41.867188 284.074219 L 41.878906 284.304688 L 41.867188 284.527344 L 41.839844 284.738281 L 41.796875 284.9375 L 41.734375 285.125 L 41.652344 285.300781 L 41.554688 285.464844 L 41.4375 285.621094 L 41.304688 285.761719 L 41.152344 285.890625 L 40.980469 286.007812 L 40.792969 286.117188 L 40.585938 286.214844 L 40.363281 286.296875 L 40.117188 286.375 L 39.859375 286.4375 L 39.578125 286.492188 L 39.285156 286.53125 L 38.96875 286.566406 L 38.636719 286.585938 L 38.285156 286.59375 L 36.820312 286.59375 L 36.457031 286.589844 L 36.109375 286.574219 L 35.785156 286.546875 L 35.476562 286.507812 L 35.1875 286.457031 L 34.917969 286.398438 L 34.667969 286.324219 L 34.4375 286.242188 L 34.226562 286.148438 L 34.03125 286.042969 L 33.855469 285.925781 L 33.699219 285.796875 L 33.5625 285.65625 L 33.441406 285.5 L 33.339844 285.335938 L 33.257812 285.15625 L 33.195312 284.964844 L 33.148438 284.761719 L 33.121094 284.542969 L 33.113281 284.316406 L 33.121094 284.089844 L 33.144531 283.878906 L 33.191406 283.679688 L 33.25 283.488281 L 33.328125 283.3125 L 33.425781 283.148438 L 33.539062 282.996094 L 33.671875 282.855469 L 33.820312 282.726562 L 33.984375 282.609375 L 34.167969 282.503906 L 34.371094 282.410156 L 34.589844 282.324219 L 34.828125 282.25 L 35.082031 282.1875 L 35.355469 282.132812 L 35.644531 282.089844 L 35.957031 282.058594 L 36.28125 282.035156 L 36.628906 282.023438 Z M 36.640625 283.0625 L 36.375 283.066406 L 36.125 283.074219 L 35.890625 283.089844 L 35.671875 283.109375 L 35.464844 283.136719 L 35.273438 283.167969 L 35.09375 283.207031 L 34.929688 283.253906 L 34.78125 283.304688 L 34.648438 283.359375 L 34.523438 283.425781 L 34.414062 283.496094 L 34.316406 283.574219 L 34.234375 283.65625 L 34.164062 283.75 L 34.105469 283.847656 L 34.058594 283.953125 L 34.027344 284.066406 L 34.007812 284.1875 L 34.003906 284.316406 L 34.007812 284.441406 L 34.027344 284.558594 L 34.058594 284.667969 L 34.101562 284.773438 L 34.160156 284.871094 L 34.230469 284.960938 L 34.3125 285.042969 L 34.40625 285.121094 L 34.515625 285.191406 L 34.636719 285.253906 L 34.765625 285.308594 L 34.910156 285.363281 L 35.070312 285.40625 L 35.238281 285.445312 L 35.421875 285.480469 L 35.621094 285.507812 L 35.828125 285.53125 L 36.050781 285.546875 L 36.285156 285.558594 L 36.535156 285.5625 L 38.554688 285.5625 L 38.804688 285.550781 L 39.039062 285.535156 L 39.261719 285.515625 L 39.472656 285.488281 L 39.667969 285.453125 L 39.851562 285.410156 L 40.019531 285.367188 L 40.175781 285.3125 L 40.320312 285.253906 L 40.445312 285.1875 L 40.5625 285.117188 L 40.664062 285.039062 L 40.75 284.953125 L 40.824219 284.859375 L 40.882812 284.761719 L 40.933594 284.65625 L 40.964844 284.546875 L 40.984375 284.429688 L 40.992188 284.304688 L 40.984375 284.179688 L 40.96875 284.066406 L 40.933594 283.953125 L 40.890625 283.851562 L 40.832031 283.753906 L 40.761719 283.664062 L 40.679688 283.582031 L 40.582031 283.503906 L 40.476562 283.4375 L 40.355469 283.371094 L 40.21875 283.316406 L 40.070312 283.265625 L 39.910156 283.21875 L 39.734375 283.179688 L 39.546875 283.144531 L 39.34375 283.117188 L 39.128906 283.09375 L 38.902344 283.078125 L 38.660156 283.066406 L 38.402344 283.0625 Z M 36.640625 283.0625 "/>
<path style=" stroke:none;fill-rule:nonzero;fill:rgb(6.666667%,9.019608%,9.803922%);fill-opacity:1;" d="M 41.761719 236.761719 L 41.761719 241.53125 L 40.980469 241.53125 L 37.757812 239.097656 L 37.613281 238.992188 L 37.472656 238.890625 L 37.335938 238.796875 L 37.207031 238.710938 L 37.082031 238.632812 L 36.960938 238.558594 L 36.847656 238.492188 L 36.738281 238.433594 L 36.636719 238.382812 L 36.539062 238.335938 L 36.34375 238.257812 L 36.246094 238.226562 L 36.148438 238.199219 L 36.046875 238.175781 L 35.945312 238.15625 L 35.839844 238.140625 L 35.738281 238.128906 L 35.632812 238.121094 L 35.527344 238.121094 L 35.390625 238.125 L 35.265625 238.132812 L 35.140625 238.148438 L 35.023438 238.171875 L 34.910156 238.199219 L 34.804688 238.234375 L 34.699219 238.273438 L 34.601562 238.324219 L 34.511719 238.375 L 34.425781 238.4375 L 34.34375 238.5 L 34.273438 238.570312 L 34.207031 238.644531 L 34.152344 238.722656 L 34.109375 238.800781 L 34.070312 238.886719 L 34.039062 238.976562 L 34.019531 239.070312 L 34.007812 239.167969 L 34.003906 239.269531 L 34.007812 239.394531 L 34.019531 239.515625 L 34.042969 239.632812 L 34.074219 239.742188 L 34.113281 239.84375 L 34.164062 239.945312 L 34.222656 240.035156 L 34.289062 240.121094 L 34.367188 240.203125 L 34.453125 240.277344 L 34.546875 240.34375 L 34.648438 240.402344 L 34.757812 240.457031 L 34.875 240.5 L 35 240.539062 L 35.132812 240.570312 L 35.273438 240.597656 L 35.421875 240.613281 L 35.578125 240.625 L 35.742188 240.628906 L 35.742188 241.664062 L 35.511719 241.660156 L 35.289062 241.640625 L 35.078125 241.605469 L 34.871094 241.5625 L 34.675781 241.503906 L 34.492188 241.433594 L 34.316406 241.347656 L 34.148438 241.253906 L 33.988281 241.144531 L 33.839844 241.019531 L 33.699219 240.886719 L 33.578125 240.742188 L 33.46875 240.59375 L 33.375 240.429688 L 33.292969 240.261719 L 33.226562 240.082031 L 33.175781 239.890625 L 33.140625 239.691406 L 33.117188 239.484375 L 33.113281 239.269531 L 33.117188 239.070312 L 33.136719 238.878906 L 33.167969 238.695312 L 33.210938 238.523438 L 33.269531 238.355469 L 33.335938 238.199219 L 33.417969 238.054688 L 33.511719 237.914062 L 33.621094 237.785156 L 33.738281 237.664062 L 33.867188 237.550781 L 34.003906 237.453125 L 34.148438 237.363281 L 34.300781 237.289062 L 34.464844 237.222656 L 34.632812 237.171875 L 34.8125 237.128906 L 35 237.101562 L 35.195312 237.082031 L 35.398438 237.078125 L 35.65625 237.089844 L 35.921875 237.128906 L 36.199219 237.195312 L 36.484375 237.289062 L 36.777344 237.40625 L 37.082031 237.550781 L 37.394531 237.722656 L 37.71875 237.921875 L 38.050781 238.144531 L 38.390625 238.394531 L 40.875 240.292969 L 40.875 236.761719 Z M 41.761719 236.761719 "/>
<path style=" stroke:none;fill-rule:nonzero;fill:rgb(6.666667%,9.019608%,9.803922%);fill-opacity:1;" d="M 38.894531 192.550781 L 38.894531 191.601562 L 39.78125 191.601562 L 39.78125 192.550781 L 41.761719 192.550781 L 41.761719 193.589844 L 39.78125 193.589844 L 39.78125 196.8125 L 39.140625 196.8125 L 33.230469 193.640625 L 33.230469 192.550781 Z M 38.894531 195.664062 L 38.894531 193.589844 L 34.839844 193.589844 Z M 38.894531 195.664062 "/>
<path style=" stroke:none;fill-rule:nonzero;fill:rgb(6.666667%,9.019608%,9.803922%);fill-opacity:1;" d="M 33.222656 147.8125 L 34.144531 147.8125 L 34.144531 147.984375 L 34.152344 148.1875 L 34.179688 148.378906 L 34.214844 148.566406 L 34.265625 148.742188 L 34.332031 148.90625 L 34.40625 149.066406 L 34.496094 149.214844 L 34.601562 149.355469 L 34.714844 149.484375 L 34.847656 149.605469 L 34.988281 149.71875 L 35.144531 149.820312 L 35.3125 149.914062 L 35.496094 149.996094 L 35.691406 150.066406 L 35.902344 150.128906 L 36.125 150.183594 L 36.363281 150.226562 L 36.613281 150.257812 L 36.878906 150.28125 L 36.742188 150.164062 L 36.621094 150.039062 L 36.515625 149.910156 L 36.421875 149.777344 L 36.34375 149.632812 L 36.277344 149.484375 L 36.230469 149.328125 L 36.191406 149.167969 L 36.171875 149 L 36.164062 148.828125 L 36.171875 148.644531 L 36.195312 148.464844 L 36.234375 148.296875 L 36.289062 148.136719 L 36.359375 147.980469 L 36.445312 147.835938 L 36.546875 147.699219 L 36.664062 147.570312 L 36.796875 147.449219 L 36.945312 147.332031 L 37.101562 147.226562 L 37.273438 147.132812 L 37.453125 147.050781 L 37.640625 146.976562 L 37.839844 146.914062 L 38.046875 146.867188 L 38.265625 146.828125 L 38.492188 146.800781 L 38.730469 146.78125 L 38.976562 146.777344 L 39.238281 146.78125 L 39.492188 146.800781 L 39.730469 146.832031 L 39.960938 146.875 L 40.179688 146.929688 L 40.382812 147 L 40.578125 147.078125 L 40.765625 147.171875 L 40.9375 147.273438 L 41.097656 147.390625 L 41.246094 147.519531 L 41.378906 147.652344 L 41.496094 147.796875 L 41.597656 147.945312 L 41.683594 148.105469 L 41.753906 148.273438 L 41.808594 148.453125 L 41.847656 148.636719 L 41.871094 148.832031 L 41.878906 149.03125 L 41.867188 149.234375 L 41.839844 149.429688 L 41.792969 149.617188 L 41.730469 149.796875 L 41.648438 149.96875 L 41.546875 150.132812 L 41.425781 150.285156 L 41.289062 150.433594 L 41.132812 150.570312 L 40.957031 150.703125 L 40.765625 150.824219 L 40.566406 150.929688 L 40.351562 151.023438 L 40.125 151.109375 L 39.886719 151.175781 L 39.636719 151.234375 L 39.375 151.277344 L 39.097656 151.308594 L 38.8125 151.328125 L 38.515625 151.335938 L 38.097656 151.335938 L 37.753906 151.332031 L 37.421875 151.320312 L 37.109375 151.300781 L 36.804688 151.273438 L 36.519531 151.238281 L 36.246094 151.199219 L 35.988281 151.148438 L 35.742188 151.089844 L 35.511719 151.027344 L 35.296875 150.953125 L 35.09375 150.875 L 34.902344 150.789062 L 34.71875 150.695312 L 34.550781 150.59375 L 34.390625 150.484375 L 34.238281 150.367188 L 34.101562 150.246094 L 33.972656 150.117188 L 33.855469 149.980469 L 33.75 149.835938 L 33.652344 149.683594 L 33.566406 149.523438 L 33.488281 149.355469 L 33.421875 149.183594 L 33.363281 149 L 33.316406 148.8125 L 33.277344 148.617188 L 33.25 148.417969 L 33.230469 148.207031 L 33.222656 147.988281 Z M 37.066406 149.003906 L 37.070312 149.085938 L 37.078125 149.167969 L 37.09375 149.25 L 37.117188 149.332031 L 37.148438 149.410156 L 37.183594 149.488281 L 37.222656 149.5625 L 37.273438 149.636719 L 37.328125 149.710938 L 37.390625 149.78125 L 37.457031 149.851562 L 37.523438 149.917969 L 37.597656 149.980469 L 37.753906 150.089844 L 37.839844 150.140625 L 37.925781 150.183594 L 38.015625 150.226562 L 38.113281 150.265625 L 38.210938 150.296875 L 38.636719 150.296875 L 38.839844 150.292969 L 39.035156 150.285156 L 39.226562 150.265625 L 39.40625 150.238281 L 39.578125 150.207031 L 39.746094 150.167969 L 39.902344 150.121094 L 40.050781 150.066406 L 40.195312 150.003906 L 40.332031 149.933594 L 40.453125 149.859375 L 40.5625 149.78125 L 40.660156 149.699219 L 40.746094 149.613281 L 40.816406 149.523438 L 40.875 149.433594 L 40.921875 149.335938 L 40.953125 149.238281 L 40.972656 149.136719 L 40.980469 149.03125 L 40.976562 148.917969 L 40.960938 148.8125 L 40.933594 148.707031 L 40.894531 148.609375 L 40.847656 148.515625 L 40.789062 148.425781 L 40.71875 148.34375 L 40.640625 148.265625 L 40.546875 148.191406 L 40.449219 148.125 L 40.335938 148.0625 L 40.21875 148.007812 L 40.09375 147.957031 L 39.960938 147.914062 L 39.824219 147.878906 L 39.679688 147.847656 L 39.527344 147.824219 L 39.367188 147.808594 L 39.203125 147.800781 L 39.03125 147.796875 L 38.859375 147.800781 L 38.695312 147.808594 L 38.539062 147.824219 L 38.386719 147.847656 L 38.242188 147.878906 L 38.105469 147.914062 L 37.972656 147.957031 L 37.847656 148.007812 L 37.730469 148.0625 L 37.617188 148.125 L 37.511719 148.191406 L 37.417969 148.265625 L 37.335938 148.339844 L 37.265625 148.421875 L 37.203125 148.507812 L 37.15625 148.597656 L 37.117188 148.691406 L 37.089844 148.792969 L 37.070312 148.894531 Z M 37.066406 149.003906 "/>
<path style=" stroke:none;fill-rule:nonzero;fill:rgb(6.666667%,9.019608%,9.803922%);fill-opacity:1;" d="M 35.457031 101.980469 L 35.582031 101.984375 L 35.707031 101.992188 L 35.824219 102.007812 L 35.945312 102.027344 L 36.058594 102.054688 L 36.171875 102.085938 L 36.28125 102.121094 L 36.386719 102.164062 L 36.492188 102.214844 L 36.59375 102.269531 L 36.691406 102.328125 L 36.871094 102.453125 L 36.957031 102.523438 L 37.035156 102.597656 L 37.113281 102.675781 L 37.183594 102.757812 L 37.25 102.847656 L 37.3125 102.9375 L 37.371094 103.03125 L 37.433594 102.917969 L 37.5 102.8125 L 37.570312 102.710938 L 37.648438 102.613281 L 37.730469 102.523438 L 37.816406 102.4375 L 37.90625 102.355469 L 38.003906 102.277344 L 38.109375 102.207031 L 38.214844 102.140625 L 38.324219 102.078125 L 38.4375 102.023438 L 38.554688 101.976562 L 38.675781 101.933594 L 38.796875 101.898438 L 38.921875 101.867188 L 39.050781 101.847656 L 39.183594 101.828125 L 39.320312 101.820312 L 39.457031 101.816406 L 39.671875 101.824219 L 39.878906 101.84375 L 40.078125 101.875 L 40.269531 101.917969 L 40.449219 101.972656 L 40.621094 102.042969 L 40.785156 102.125 L 40.9375 102.21875 L 41.085938 102.324219 L 41.222656 102.445312 L 41.34375 102.574219 L 41.457031 102.707031 L 41.554688 102.855469 L 41.640625 103.007812 L 41.714844 103.167969 L 41.773438 103.335938 L 41.816406 103.515625 L 41.851562 103.699219 L 41.871094 103.894531 L 41.878906 104.097656 L 41.871094 104.296875 L 41.851562 104.492188 L 41.816406 104.679688 L 41.773438 104.855469 L 41.714844 105.027344 L 41.640625 105.1875 L 41.554688 105.34375 L 41.457031 105.488281 L 41.34375 105.625 L 41.222656 105.753906 L 41.085938 105.871094 L 40.9375 105.976562 L 40.785156 106.070312 L 40.621094 106.152344 L 40.449219 106.21875 L 40.269531 106.277344 L 40.078125 106.320312 L 39.878906 106.351562 L 39.671875 106.371094 L 39.457031 106.375 L 39.316406 106.371094 L 39.183594 106.363281 L 39.050781 106.347656 L 38.917969 106.324219 L 38.792969 106.296875 L 38.667969 106.261719 L 38.546875 106.21875 L 38.429688 106.171875 L 38.316406 106.121094 L 38.203125 106.058594 L 38.09375 105.992188 L 37.992188 105.921875 L 37.894531 105.84375 L 37.800781 105.765625 L 37.714844 105.679688 L 37.632812 105.589844 L 37.558594 105.496094 L 37.488281 105.398438 L 37.425781 105.292969 L 37.367188 105.1875 L 37.308594 105.28125 L 37.246094 105.371094 L 37.179688 105.457031 L 37.105469 105.539062 L 37.03125 105.617188 L 36.953125 105.6875 L 36.867188 105.757812 L 36.78125 105.824219 L 36.6875 105.886719 L 36.59375 105.941406 L 36.492188 105.996094 L 36.386719 106.042969 L 36.28125 106.082031 L 36.171875 106.117188 L 36.058594 106.148438 L 35.945312 106.171875 L 35.824219 106.191406 L 35.707031 106.207031 L 35.582031 106.214844 L 35.457031 106.21875 L 35.242188 106.210938 L 35.042969 106.195312 L 34.847656 106.164062 L 34.664062 106.125 L 34.488281 106.074219 L 34.320312 106.007812 L 34.164062 105.933594 L 34.015625 105.847656 L 33.875 105.746094 L 33.746094 105.636719 L 33.625 105.515625 L 33.515625 105.386719 L 33.421875 105.253906 L 33.339844 105.109375 L 33.269531 104.960938 L 33.210938 104.800781 L 33.167969 104.636719 L 33.136719 104.464844 L 33.117188 104.285156 L 33.113281 104.097656 L 33.117188 103.910156 L 33.136719 103.730469 L 33.167969 103.558594 L 33.210938 103.394531 L 33.269531 103.238281 L 33.335938 103.089844 L 33.417969 102.949219 L 33.511719 102.8125 L 33.621094 102.6875 L 33.738281 102.566406 L 33.867188 102.457031 L 34.007812 102.355469 L 34.15625 102.269531 L 34.3125 102.191406 L 34.480469 102.128906 L 34.65625 102.074219 L 34.84375 102.035156 L 35.039062 102.003906 L 35.242188 101.988281 Z M 39.433594 102.855469 L 39.289062 102.859375 L 39.152344 102.867188 L 39.019531 102.886719 L 38.894531 102.910156 L 38.773438 102.941406 L 38.660156 102.980469 L 38.550781 103.023438 L 38.449219 103.074219 L 38.351562 103.132812 L 38.261719 103.199219 L 38.175781 103.269531 L 38.101562 103.347656 L 38.035156 103.425781 L 37.976562 103.511719 L 37.929688 103.601562 L 37.886719 103.691406 L 37.855469 103.789062 L 37.835938 103.890625 L 37.820312 103.996094 L 37.816406 104.109375 L 37.820312 104.21875 L 37.835938 104.328125 L 37.855469 104.429688 L 37.886719 104.527344 L 37.929688 104.621094 L 37.976562 104.710938 L 38.035156 104.792969 L 38.101562 104.875 L 38.175781 104.945312 L 38.261719 105.015625 L 38.355469 105.078125 L 38.453125 105.132812 L 38.554688 105.183594 L 38.664062 105.226562 L 38.777344 105.261719 L 38.898438 105.292969 L 39.023438 105.316406 L 39.15625 105.332031 L 39.292969 105.339844 L 39.433594 105.34375 L 39.578125 105.339844 L 39.714844 105.332031 L 39.847656 105.316406 L 39.972656 105.292969 L 40.089844 105.265625 L 40.203125 105.226562 L 40.304688 105.1875 L 40.40625 105.136719 L 40.496094 105.082031 L 40.582031 105.023438 L 40.660156 104.953125 L 40.730469 104.878906 L 40.792969 104.800781 L 40.84375 104.714844 L 40.890625 104.625 L 40.925781 104.53125 L 40.957031 104.429688 L 40.976562 104.324219 L 40.988281 104.214844 L 40.992188 104.097656 L 40.988281 103.980469 L 40.976562 103.867188 L 40.957031 103.761719 L 40.925781 103.664062 L 40.890625 103.566406 L 40.84375 103.476562 L 40.792969 103.394531 L 40.730469 103.316406 L 40.660156 103.242188 L 40.582031 103.175781 L 40.496094 103.117188 L 40.40625 103.058594 L 40.304688 103.011719 L 40.203125 102.96875 L 40.089844 102.933594 L 39.972656 102.90625 L 39.847656 102.882812 L 39.714844 102.867188 L 39.578125 102.859375 Z M 35.472656 103.011719 L 35.34375 103.015625 L 35.222656 103.023438 L 35.105469 103.039062 L 34.992188 103.0625 L 34.882812 103.089844 L 34.777344 103.121094 L 34.679688 103.160156 L 34.585938 103.207031 L 34.496094 103.257812 L 34.414062 103.316406 L 34.335938 103.378906 L 34.265625 103.445312 L 34.203125 103.515625 L 34.148438 103.589844 L 34.105469 103.664062 L 34.066406 103.742188 L 34.039062 103.828125 L 34.019531 103.914062 L 34.007812 104.003906 L 34.003906 104.097656 L 34.007812 104.195312 L 34.019531 104.289062 L 34.039062 104.375 L 34.066406 104.460938 L 34.101562 104.542969 L 34.148438 104.621094 L 34.199219 104.691406 L 34.261719 104.761719 L 34.328125 104.828125 L 34.40625 104.886719 L 34.488281 104.941406 L 34.578125 104.992188 L 34.671875 105.035156 L 34.769531 105.074219 L 34.875 105.105469 L 34.984375 105.132812 L 35.097656 105.152344 L 35.21875 105.167969 L 35.34375 105.175781 L 35.472656 105.179688 L 35.605469 105.175781 L 35.730469 105.167969 L 35.847656 105.152344 L 35.964844 105.132812 L 36.070312 105.105469 L 36.175781 105.074219 L 36.273438 105.035156 L 36.367188 104.988281 L 36.453125 104.9375 L 36.535156 104.882812 L 36.609375 104.820312 L 36.675781 104.753906 L 36.734375 104.683594 L 36.785156 104.613281 L 36.828125 104.535156 L 36.863281 104.457031 L 36.890625 104.371094 L 36.910156 104.285156 L 36.921875 104.191406 L 36.925781 104.097656 L 36.921875 104 L 36.910156 103.90625 L 36.890625 103.816406 L 36.863281 103.730469 L 36.828125 103.648438 L 36.78125 103.574219 L 36.730469 103.5 L 36.671875 103.429688 L 36.601562 103.367188 L 36.527344 103.304688 L 36.445312 103.25 L 36.359375 103.199219 L 36.265625 103.15625 L 36.167969 103.117188 L 36.066406 103.085938 L 35.957031 103.058594 L 35.84375 103.039062 L 35.726562 103.023438 L 35.601562 103.015625 Z M 35.472656 103.011719 "/>
<path style=" stroke:none;fill-rule:nonzero;fill:rgb(6.666667%,9.019608%,9.803922%);fill-opacity:1;" d="M 41.761719 61.191406 L 41.761719 62.234375 L 34.535156 62.234375 L 35.339844 64.027344 L 34.355469 64.027344 L 33.1875 61.355469 L 33.1875 61.191406 Z M 41.761719 61.191406 "/>
<path style=" stroke:none;fill-rule:nonzero;fill:rgb(6.666667%,9.019608%,9.803922%);fill-opacity:1;" d="M 38.121094 53.796875 L 38.488281 53.800781 L 38.839844 53.816406 L 39.167969 53.84375 L 39.480469 53.882812 L 39.769531 53.933594 L 40.042969 53.992188 L 40.296875 54.066406 L 40.53125 54.148438 L 40.75 54.242188 L 40.945312 54.347656 L 41.121094 54.464844 L 41.28125 54.59375 L 41.421875 54.734375 L 41.542969 54.886719 L 41.644531 55.054688 L 41.726562 55.234375 L 41.792969 55.425781 L 41.839844 55.628906 L 41.867188 55.847656 L 41.878906 56.074219 L 41.867188 56.296875 L 41.839844 56.507812 L 41.796875 56.707031 L 41.734375 56.894531 L 41.652344 57.074219 L 41.554688 57.238281 L 41.4375 57.390625 L 41.304688 57.53125 L 41.152344 57.660156 L 40.980469 57.78125 L 40.792969 57.886719 L 40.585938 57.984375 L 40.363281 58.070312 L 40.117188 58.144531 L 39.859375 58.207031 L 39.578125 58.261719 L 39.285156 58.304688 L 38.96875 58.335938 L 38.636719 58.355469 L 38.285156 58.367188 L 36.820312 58.367188 L 36.457031 58.359375 L 36.109375 58.34375 L 35.785156 58.316406 L 35.476562 58.277344 L 35.1875 58.226562 L 34.917969 58.167969 L 34.667969 58.097656 L 34.4375 58.011719 L 34.226562 57.921875 L 34.03125 57.816406 L 33.855469 57.699219 L 33.699219 57.566406 L 33.5625 57.425781 L 33.441406 57.273438 L 33.339844 57.105469 L 33.257812 56.925781 L 33.195312 56.734375 L 33.148438 56.53125 L 33.121094 56.316406 L 33.113281 56.085938 L 33.121094 55.863281 L 33.144531 55.648438 L 33.191406 55.449219 L 33.25 55.261719 L 33.328125 55.082031 L 33.425781 54.917969 L 33.539062 54.765625 L 33.671875 54.625 L 33.820312 54.496094 L 33.984375 54.382812 L 34.167969 54.277344 L 34.371094 54.179688 L 34.589844 54.09375 L 34.828125 54.019531 L 35.082031 53.957031 L 35.355469 53.902344 L 35.644531 53.859375 L 35.957031 53.828125 L 36.28125 53.808594 L 36.628906 53.796875 Z M 36.640625 54.832031 L 36.375 54.835938 L 36.125 54.84375 L 35.890625 54.859375 L 35.671875 54.878906 L 35.464844 54.90625 L 35.273438 54.941406 L 35.09375 54.980469 L 34.929688 55.023438 L 34.78125 55.074219 L 34.648438 55.132812 L 34.523438 55.195312 L 34.414062 55.265625 L 34.316406 55.34375 L 34.234375 55.429688 L 34.164062 55.519531 L 34.105469 55.617188 L 34.058594 55.726562 L 34.027344 55.839844 L 34.007812 55.960938 L 34.003906 56.085938 L 34.007812 56.210938 L 34.027344 56.328125 L 34.058594 56.441406 L 34.101562 56.542969 L 34.160156 56.640625 L 34.230469 56.730469 L 34.3125 56.816406 L 34.40625 56.890625 L 34.515625 56.960938 L 34.636719 57.023438 L 34.765625 57.082031 L 34.910156 57.132812 L 35.070312 57.179688 L 35.238281 57.21875 L 35.421875 57.25 L 35.621094 57.28125 L 35.828125 57.300781 L 36.050781 57.320312 L 36.285156 57.328125 L 36.535156 57.335938 L 38.292969 57.335938 L 38.554688 57.332031 L 38.804688 57.324219 L 39.039062 57.308594 L 39.261719 57.285156 L 39.472656 57.257812 L 39.667969 57.222656 L 39.851562 57.183594 L 40.019531 57.136719 L 40.175781 57.082031 L 40.320312 57.023438 L 40.445312 56.957031 L 40.5625 56.886719 L 40.664062 56.808594 L 40.75 56.722656 L 40.824219 56.632812 L 40.882812 56.535156 L 40.933594 56.429688 L 40.964844 56.316406 L 40.984375 56.199219 L 40.992188 56.074219 L 40.984375 55.953125 L 40.96875 55.835938 L 40.933594 55.726562 L 40.890625 55.621094 L 40.832031 55.527344 L 40.761719 55.4375 L 40.679688 55.351562 L 40.582031 55.277344 L 40.476562 55.207031 L 40.355469 55.144531 L 40.21875 55.085938 L 40.070312 55.035156 L 39.910156 54.988281 L 39.734375 54.949219 L 39.546875 54.917969 L 39.34375 54.886719 L 39.128906 54.867188 L 38.902344 54.847656 L 38.660156 54.839844 L 38.402344 54.832031 Z M 36.640625 54.832031 "/>
<g clip-path="url(#clip1)" clip-rule="nonzero">
<path style="fill:none;stroke-width:0.75;stroke-linecap:round;stroke-linejoin:round;stroke:rgb(82.745098%,82.745098%,82.745098%);stroke-opacity:1;stroke-dasharray:0.75,2.25;stroke-miterlimit:10;" d="M 67.890625 286.558594 L 67.890625 59.039062 "/>
</g>
<g clip-path="url(#clip2)" clip-rule="nonzero">
<path style="fill:none;stroke-width:0.75;stroke-linecap:round;stroke-linejoin:round;stroke:rgb(82.745098%,82.745098%,82.745098%);stroke-opacity:1;stroke-dasharray:0.75,2.25;stroke-miterlimit:10;" d="M 132.976562 286.558594 L 132.976562 59.039062 "/>
</g>
<g clip-path="url(#clip3)" clip-rule="nonzero">
<path style="fill:none;stroke-width:0.75;stroke-linecap:round;stroke-linejoin:round;stroke:rgb(82.745098%,82.745098%,82.745098%);stroke-opacity:1;stroke-dasharray:0.75,2.25;stroke-miterlimit:10;" d="M 198.0625 286.558594 L 198.0625 59.039062 "/>
</g>
<g clip-path="url(#clip4)" clip-rule="nonzero">
<path style="fill:none;stroke-width:0.75;stroke-linecap:round;stroke-linejoin:round;stroke:rgb(82.745098%,82.745098%,82.745098%);stroke-opacity:1;stroke-dasharray:0.75,2.25;stroke-miterlimit:10;" d="M 263.144531 286.558594 L 263.144531 59.039062 "/>
</g>
<g clip-path="url(#clip5)" clip-rule="nonzero">
<path style="fill:none;stroke-width:0.75;stroke-linecap:round;stroke-linejoin:round;stroke:rgb(82.745098%,82.745098%,82.745098%);stroke-opacity:1;stroke-dasharray:0.75,2.25;stroke-miterlimit:10;" d="M 328.230469 286.558594 L 328.230469 59.039062 "/>
</g>
<g clip-path="url(#clip6)" clip-rule="nonzero">
<path style="fill:none;stroke-width:0.75;stroke-linecap:round;stroke-linejoin:round;stroke:rgb(82.745098%,82.745098%,82.745098%);stroke-opacity:1;stroke-dasharray:0.75,2.25;stroke-miterlimit:10;" d="M 393.316406 286.558594 L 393.316406 59.039062 "/>
</g>
<g clip-path="url(#clip7)" clip-rule="nonzero">
<path style="fill:none;stroke-width:0.75;stroke-linecap:round;stroke-linejoin:round;stroke:rgb(82.745098%,82.745098%,82.745098%);stroke-opacity:1;stroke-dasharray:0.75,2.25;stroke-miterlimit:10;" d="M 458.398438 286.558594 L 458.398438 59.039062 "/>
</g>
<g clip-path="url(#clip8)" clip-rule="nonzero">
<path style="fill:none;stroke-width:0.75;stroke-linecap:round;stroke-linejoin:round;stroke:rgb(82.745098%,82.745098%,82.745098%);stroke-opacity:1;stroke-dasharray:0.75,2.25;stroke-miterlimit:10;" d="M 59.039062 284.308594 L 473.761719 284.308594 "/>
</g>
<g clip-path="url(#clip9)" clip-rule="nonzero">
<path style="fill:none;stroke-width:0.75;stroke-linecap:round;stroke-linejoin:round;stroke:rgb(82.745098%,82.745098%,82.745098%);stroke-opacity:1;stroke-dasharray:0.75,2.25;stroke-miterlimit:10;" d="M 59.039062 239.253906 L 473.761719 239.253906 "/>
</g>
<g clip-path="url(#clip10)" clip-rule="nonzero">
<path style="fill:none;stroke-width:0.75;stroke-linecap:round;stroke-linejoin:round;stroke:rgb(82.745098%,82.745098%,82.745098%);stroke-opacity:1;stroke-dasharray:0.75,2.25;stroke-miterlimit:10;" d="M 59.039062 194.199219 L 473.761719 194.199219 "/>
</g>
<g clip-path="url(#clip11)" clip-rule="nonzero">
<path style="fill:none;stroke-width:0.75;stroke-linecap:round;stroke-linejoin:round;stroke:rgb(82.745098%,82.745098%,82.745098%);stroke-opacity:1;stroke-dasharray:0.75,2.25;stroke-miterlimit:10;" d="M 59.039062 149.148438 L 473.761719 149.148438 "/>
</g>
<g clip-path="url(#clip12)" clip-rule="nonzero">
<path style="fill:none;stroke-width:0.75;stroke-linecap:round;stroke-linejoin:round;stroke:rgb(82.745098%,82.745098%,82.745098%);stroke-opacity:1;stroke-dasharray:0.75,2.25;stroke-miterlimit:10;" d="M 59.039062 104.09375 L 473.761719 104.09375 "/>
</g>
<g clip-path="url(#clip13)" clip-rule="nonzero">
<path style="fill:none;stroke-width:0.75;stroke-linecap:round;stroke-linejoin:round;stroke:rgb(82.745098%,82.745098%,82.745098%);stroke-opacity:1;stroke-dasharray:0.75,2.25;stroke-miterlimit:10;" d="M 59.039062 59.039062 L 473.761719 59.039062 "/>
</g>
</g>
</svg>
