  0
SECTION
  2
HEADER
  9
$ACADVER
  1
AC1014
  9
$HANDSEED
  5
FFFF
  9
$MEASUREMENT
 70
     1
  0
ENDSEC
  0
SECTION
  2
TABLES
  0
TABLE
  2
VPORT
  5
8
330
0
100
AcDbSymbolTable
 70
     4
  0
VPORT
  5
2E
330
8
100
AcDbSymbolTableRecord
100
AcDbViewportTableRecord
  2
*ACTIVE
 70
     0
 10
0.0
 20
0.0
 11
1.0
 21
1.0
 12
210.0
 22
148.5
 13
0.0
 23
0.0
 14
10.0
 24
10.0
 15
10.0
 25
10.0
 16
0.0
 26
0.0
 36
1.0
 17
0.0
 27
0.0
 37
0.0
 40
341.0
 41
1.24
 42
50.0
 43
0.0
 44
0.0
 50
0.0
 51
0.0
 71
     0
 72
   100
 73
     1
 74
     3
 75
     0
 76
     0
 77
     0
 78
     0
  0
ENDTAB
  0
TABLE
  2
LTYPE
  5
5
330
0
100
AcDbSymbolTable
 70
     1
  0
LTYPE
  5
14
330
5
100
AcDbSymbolTableRecord
100
AcDbLinetypeTableRecord
  2
BYBLOCK
 70
     0
  3

 72
    65
 73
     0
 40
0.0
  0
LTYPE
  5
15
330
5
100
AcDbSymbolTableRecord
100
AcDbLinetypeTableRecord
  2
BYLAYER
 70
     0
  3

 72
    65
 73
     0
 40
0.0
  0
LTYPE
  5
16
330
5
100
AcDbSymbolTableRecord
100
AcDbLinetypeTableRecord
  2
CONTINUOUS
 70
     0
  3
Solid line
 72
    65
 73
     0
 40
0.0
  0
ENDTAB
  0
TABLE
  2
LAYER
  5
2
100
AcDbSymbolTable
 70
2
  0
LAYER
  5
50
100
AcDbSymbolTableRecord
100
AcDbLayerTableRecord
  2
0
 70
0
  6
CONTINUOUS
  0
LAYER
  5
51
100
AcDbSymbolTableRecord
100
AcDbLayerTableRecord
  2
Layer_1
 70
0
  6
CONTINUOUS
  0
ENDTAB
  0
TABLE
  2
STYLE
  5
3
330
0
100
AcDbSymbolTable
 70
     1
  0
STYLE
  5
11
330
3
100
AcDbSymbolTableRecord
100
AcDbTextStyleTableRecord
  2
STANDARD
 70
     0
 40
0.0
 41
1.0
 50
0.0
 71
     0
 42
2.5
  3
txt
  4

  0
ENDTAB
  0
TABLE
  2
VIEW
  5
6
330
0
100
AcDbSymbolTable
 70
     0
  0
ENDTAB
  0
TABLE
  2
UCS
  5
7
330
0
100
AcDbSymbolTable
 70
     0
  0
ENDTAB
  0
TABLE
  2
APPID
  5
9
330
0
100
AcDbSymbolTable
 70
     2
  0
APPID
  5
12
330
9
100
AcDbSymbolTableRecord
100
AcDbRegAppTableRecord
  2
ACAD
 70
     0
  0
ENDTAB
  0
TABLE
  2
DIMSTYLE
  5
A
330
0
100
AcDbSymbolTable
 70
     1
  0
DIMSTYLE
105
27
330
A
100
AcDbSymbolTableRecord
100
AcDbDimStyleTableRecord
  2
ISO-25
 70
     0
  3

  4

  5

  6

  7

 40
1.0
 41
2.5
 42
0.625
 43
3.75
 44
1.25
 45
0.0
 46
0.0
 47
0.0
 48
0.0
140
2.5
141
2.5
142
0.0
143
0.03937007874016
144
1.0
145
0.0
146
1.0
147
0.625
 71
     0
 72
     0
 73
     0
 74
     0
 75
     0
 76
     0
 77
     1
 78
     8
170
     0
171
     3
172
     1
173
     0
174
     0
175
     0
176
     0
177
     0
178
     0
270
     2
271
     2
272
     2
273
     2
274
     3
340
11
275
     0
280
     0
281
     0
282
     0
283
     0
284
     8
285
     0
286
     0
287
     3
288
     0
  0
ENDTAB
  0
TABLE
  2
BLOCK_RECORD
  5
1
330
0
100
AcDbSymbolTable
 70
     1
  0
BLOCK_RECORD
  5
1F
330
1
100
AcDbSymbolTableRecord
100
AcDbBlockTableRecord
  2
*MODEL_SPACE
  0
BLOCK_RECORD
  5
1B
330
1
100
AcDbSymbolTableRecord
100
AcDbBlockTableRecord
  2
*PAPER_SPACE
  0
ENDTAB
  0
ENDSEC
  0
SECTION
  2
BLOCKS
  0
BLOCK
  5
20
330
1F
100
AcDbEntity
  8
0
100
AcDbBlockBegin
  2
*MODEL_SPACE
 70
     0
 10
0.0
 20
0.0
 30
0.0
  3
*MODEL_SPACE
  1

  0
ENDBLK
  5
21
330
1F
100
AcDbEntity
  8
0
100
AcDbBlockEnd
  0
BLOCK
  5
1C
330
1B
100
AcDbEntity
 67
     1
  8
0
100
AcDbBlockBegin
  2
*PAPER_SPACE
  1

  0
ENDBLK
  5
1D
330
1B
100
AcDbEntity
 67
     1
  8
0
100
AcDbBlockEnd
  0
ENDSEC
  0
SECTION
  2
ENTITIES
  0
LWPOLYLINE
  5
100
100
AcDbEntity
  8
Layer_1
 62
1
100
AcDbPolyline
 90
4
 70
1
 10
390.000000
 20
-330.000000
 30
0.0
 10
700.000040
 20
-330.000000
 30
0.0
 10
700.000040
 20
-409.999990
 30
0.0
 10
390.000000
 20
-409.999990
 30
0.0
  0
LWPOLYLINE
  5
101
100
AcDbEntity
  8
Layer_1
 62
1
100
AcDbPolyline
 90
4
 70
1
 10
320.000020
 20
-290.000013
 30
0.0
 10
700.000033
 20
-290.000013
 30
0.0
 10
700.000033
 20
-330.000011
 30
0.0
 10
320.000020
 20
-330.000011
 30
0.0
  0
LWPOLYLINE
  5
102
100
AcDbEntity
  8
Layer_1
 62
1
100
AcDbPolyline
 90
4
 70
1
 10
320.000020
 20
-250.000025
 30
0.0
 10
700.000033
 20
-250.000025
 30
0.0
 10
700.000033
 20
-290.000024
 30
0.0
 10
320.000020
 20
-290.000024
 30
0.0
  0
LWPOLYLINE
  5
103
100
AcDbEntity
  8
Layer_1
 62
1
100
AcDbPolyline
 90
4
 70
1
 10
320.000020
 20
-209.999962
 30
0.0
 10
700.000033
 20
-209.999962
 30
0.0
 10
700.000033
 20
-249.999961
 30
0.0
 10
320.000020
 20
-249.999961
 30
0.0
  0
LWPOLYLINE
  5
104
100
AcDbEntity
  8
Layer_1
 62
1
100
AcDbPolyline
 90
4
 70
1
 10
320.000020
 20
-170.000013
 30
0.0
 10
699.999995
 20
-170.000013
 30
0.0
 10
699.999995
 20
-210.000011
 30
0.0
 10
320.000020
 20
-210.000011
 30
0.0
  0
LWPOLYLINE
  5
105
100
AcDbEntity
  8
Layer_1
 62
1
100
AcDbPolyline
 90
4
 70
1
 10
320.000020
 20
-130.000010
 30
0.0
 10
700.000033
 20
-130.000010
 30
0.0
 10
700.000033
 20
-170.000009
 30
0.0
 10
320.000020
 20
-170.000009
 30
0.0
  0
LWPOLYLINE
  5
106
100
AcDbEntity
  8
Layer_1
 62
1
100
AcDbPolyline
 90
4
 70
1
 10
320.000020
 20
-90.000000
 30
0.0
 10
700.000033
 20
-90.000000
 30
0.0
 10
700.000033
 20
-129.999999
 30
0.0
 10
320.000020
 20
-129.999999
 30
0.0
  0
LWPOLYLINE
  5
107
100
AcDbEntity
  8
Layer_1
 62
1
100
AcDbPolyline
 90
4
 70
1
 10
320.000020
 20
-49.999990
 30
0.0
 10
700.000033
 20
-49.999990
 30
0.0
 10
700.000033
 20
-89.999989
 30
0.0
 10
320.000020
 20
-89.999989
 30
0.0
  0
LWPOLYLINE
  5
108
100
AcDbEntity
  8
Layer_1
 62
1
100
AcDbPolyline
 90
4
 70
1
 10
319.999990
 20
-330.000000
 30
0.0
 10
389.999992
 20
-330.000000
 30
0.0
 10
389.999992
 20
-450.000000
 30
0.0
 10
319.999990
 20
-450.000000
 30
0.0
  0
LWPOLYLINE
  5
109
100
AcDbEntity
  8
Layer_1
 62
1
100
AcDbPolyline
 90
4
 70
1
 10
259.999990
 20
-49.999990
 30
0.0
 10
319.999990
 20
-49.999990
 30
0.0
 10
319.999990
 20
-330.000000
 30
0.0
 10
259.999990
 20
-330.000000
 30
0.0
  0
LWPOLYLINE
  5
10a
100
AcDbEntity
  8
Layer_1
 62
1
100
AcDbPolyline
 90
4
 70
1
 10
199.999990
 20
-49.999990
 30
0.0
 10
259.999990
 20
-49.999990
 30
0.0
 10
259.999990
 20
-530.000028
 30
0.0
 10
199.999990
 20
-530.000028
 30
0.0
  0
LWPOLYLINE
  5
10b
100
AcDbEntity
  8
Layer_1
 62
1
100
AcDbPolyline
 90
4
 70
1
 10
140.000005
 20
-49.999990
 30
0.0
 10
200.000005
 20
-49.999990
 30
0.0
 10
200.000005
 20
-500.000028
 30
0.0
 10
140.000005
 20
-500.000028
 30
0.0
  0
LWPOLYLINE
  5
10c
100
AcDbEntity
  8
Layer_1
 62
7
100
AcDbPolyline
 90
4
 70
1
 10
79.999997
 20
-60.000000
 30
0.0
 10
139.999997
 20
-60.000000
 30
0.0
 10
139.999997
 20
-490.000025
 30
0.0
 10
79.999997
 20
-490.000025
 30
0.0
  0
LWPOLYLINE
  5
10d
100
AcDbEntity
  8
Layer_1
 62
1
100
AcDbPolyline
 90
5
 70
1
 10
13.229167
 20
40.666670
 30
0.0
 10
41.274364
 20
40.666670
 30
0.0
 10
49.498916
 20
35.639880
 30
0.0
 10
41.274364
 20
30.612510
 30
0.0
 10
13.229167
 20
30.612510
 30
0.0
  0
LWPOLYLINE
  5
10e
100
AcDbEntity
  8
Layer_1
 62
1
100
AcDbPolyline
 90
5
 70
1
 10
13.229167
 20
53.895830
 30
0.0
 10
41.274364
 20
53.895830
 30
0.0
 10
49.498916
 20
48.869040
 30
0.0
 10
41.274364
 20
43.841670
 30
0.0
 10
13.229167
 20
43.841670
 30
0.0
  0
LWPOLYLINE
  5
10f
100
AcDbEntity
  8
Layer_1
 62
1
100
AcDbPolyline
 90
5
 70
1
 10
13.229167
 20
67.125000
 30
0.0
 10
41.274364
 20
67.125000
 30
0.0
 10
49.498916
 20
62.098210
 30
0.0
 10
41.274364
 20
57.070840
 30
0.0
 10
13.229167
 20
57.070840
 30
0.0
  0
LWPOLYLINE
  5
110
100
AcDbEntity
  8
Layer_1
 62
1
100
AcDbPolyline
 90
5
 70
1
 10
13.229167
 20
83.000000
 30
0.0
 10
41.274364
 20
83.000000
 30
0.0
 10
49.498916
 20
77.973210
 30
0.0
 10
41.274364
 20
72.945840
 30
0.0
 10
13.229167
 20
72.945840
 30
0.0
  0
LWPOLYLINE
  5
111
100
AcDbEntity
  8
Layer_1
 62
1
100
AcDbPolyline
 90
5
 70
1
 10
52.916663
 20
158.624357
 30
0.0
 10
52.916663
 20
141.208336
 30
0.0
 10
44.979623
 20
132.297877
 30
0.0
 10
37.041664
 20
141.208336
 30
0.0
 10
37.041664
 20
158.624351
 30
0.0
  0
LWPOLYLINE
  5
112
100
AcDbEntity
  8
Layer_1
 62
1
100
AcDbPolyline
 90
4
 70
1
 10
259.999990
 20
-330.000000
 30
0.0
 10
319.999990
 20
-330.000000
 30
0.0
 10
319.999990
 20
-529.999990
 30
0.0
 10
259.999990
 20
-529.999990
 30
0.0
  0
LWPOLYLINE
  5
113
100
AcDbEntity
  8
Layer_1
 62
1
100
AcDbPolyline
 90
4
 70
1
 10
140.000005
 20
-500.000013
 30
0.0
 10
200.000005
 20
-500.000013
 30
0.0
 10
200.000005
 20
-559.999994
 30
0.0
 10
140.000005
 20
-559.999994
 30
0.0
  0
LWPOLYLINE
  5
114
100
AcDbEntity
  8
Layer_1
 62
1
100
AcDbPolyline
 90
9
 70
1
 10
52.916663
 20
158.624357
 30
0.0
 10
48.293691
 20
154.888668
 30
0.0
 10
52.916663
 20
151.153494
 30
0.0
 10
244.790260
 20
151.153494
 30
0.0
 10
244.790260
 20
141.153588
 30
0.0
 10
252.261120
 20
141.153588
 30
0.0
 10
252.261120
 20
151.153494
 30
0.0
 10
252.261120
 20
158.624357
 30
0.0
 10
244.790260
 20
158.624357
 30
0.0
  0
LWPOLYLINE
  5
115
100
AcDbEntity
  8
Layer_1
 62
7
100
AcDbPolyline
 90
9
 70
1
 10
52.916667
 20
158.624357
 30
0.0
 10
48.293695
 20
154.888668
 30
0.0
 10
52.916667
 20
151.153494
 30
0.0
 10
244.790260
 20
151.153494
 30
0.0
 10
244.790260
 20
141.153587
 30
0.0
 10
252.261120
 20
141.153587
 30
0.0
 10
252.261120
 20
151.153493
 30
0.0
 10
252.261120
 20
158.624356
 30
0.0
 10
244.790260
 20
158.624356
 30
0.0
  0
LWPOLYLINE
  5
116
100
AcDbEntity
  8
Layer_1
 62
7
100
AcDbPolyline
 90
4
 70
1
 10
970.000025
 20
-60.000000
 30
0.0
 10
1030.000025
 20
-60.000000
 30
0.0
 10
1030.000025
 20
-330.000000
 30
0.0
 10
970.000025
 20
-330.000000
 30
0.0
  0
LWPOLYLINE
  5
117
100
AcDbEntity
  8
Layer_1
 62
1
100
AcDbPolyline
 90
4
 70
1
 10
910.000025
 20
-100.000010
 30
0.0
 10
970.000025
 20
-100.000010
 30
0.0
 10
970.000025
 20
-330.000057
 30
0.0
 10
910.000025
 20
-330.000057
 30
0.0
  0
LWPOLYLINE
  5
118
100
AcDbEntity
  8
Layer_1
 62
1
100
AcDbPolyline
 90
4
 70
1
 10
849.999987
 20
-49.999990
 30
0.0
 10
909.999987
 20
-49.999990
 30
0.0
 10
909.999987
 20
-409.999960
 30
0.0
 10
849.999987
 20
-409.999960
 30
0.0
  0
LWPOLYLINE
  5
119
100
AcDbEntity
  8
Layer_1
 62
1
100
AcDbPolyline
 90
4
 70
1
 10
320.000020
 20
-450.000000
 30
0.0
 10
850.000033
 20
-450.000000
 30
0.0
 10
850.000033
 20
-489.999999
 30
0.0
 10
320.000020
 20
-489.999999
 30
0.0
  0
LWPOLYLINE
  5
11a
100
AcDbEntity
  8
Layer_1
 62
1
100
AcDbPolyline
 90
4
 70
1
 10
390.000038
 20
-409.999975
 30
0.0
 10
850.000063
 20
-409.999975
 30
0.0
 10
850.000063
 20
-449.999974
 30
0.0
 10
390.000038
 20
-449.999974
 30
0.0
  0
LWPOLYLINE
  5
11b
100
AcDbEntity
  8
Layer_1
 62
1
100
AcDbPolyline
 90
4
 70
1
 10
320.000020
 20
-489.999987
 30
0.0
 10
850.000033
 20
-489.999987
 30
0.0
 10
850.000033
 20
-529.999986
 30
0.0
 10
320.000020
 20
-529.999986
 30
0.0
  0
LWPOLYLINE
  5
11c
100
AcDbEntity
  8
Layer_1
 62
1
100
AcDbPolyline
 90
4
 70
1
 10
699.999987
 20
-49.999990
 30
0.0
 10
849.999987
 20
-49.999990
 30
0.0
 10
849.999987
 20
-209.999985
 30
0.0
 10
699.999987
 20
-209.999985
 30
0.0
  0
LWPOLYLINE
  5
11d
100
AcDbEntity
  8
Layer_1
 62
1
100
AcDbPolyline
 90
4
 70
1
 10
699.999987
 20
-360.000000
 30
0.0
 10
849.999987
 20
-360.000000
 30
0.0
 10
849.999987
 20
-409.999979
 30
0.0
 10
699.999987
 20
-409.999979
 30
0.0
  0
LWPOLYLINE
  5
11e
100
AcDbEntity
  8
Layer_1
 62
1
100
AcDbPolyline
 90
4
 70
1
 10
699.999987
 20
-210.000038
 30
0.0
 10
849.999987
 20
-210.000038
 30
0.0
 10
849.999987
 20
-360.000023
 30
0.0
 10
699.999987
 20
-360.000023
 30
0.0
  0
LWPOLYLINE
  5
11f
100
AcDbEntity
  8
Layer_1
 62
1
100
AcDbPolyline
 90
5
 70
1
 10
240.770840
 20
127.979163
 30
0.0
 10
240.770840
 20
141.931897
 30
0.0
 10
248.707890
 20
150.064917
 30
0.0
 10
256.645840
 20
141.931897
 30
0.0
 10
256.645840
 20
127.979171
 30
0.0
  0
LWPOLYLINE
  5
120
100
AcDbEntity
  8
Layer_1
 62
1
100
AcDbPolyline
 90
4
 70
1
 10
849.999987
 20
-410.000013
 30
0.0
 10
909.999987
 20
-410.000013
 30
0.0
 10
909.999987
 20
-530.000013
 30
0.0
 10
849.999987
 20
-530.000013
 30
0.0
  0
LWPOLYLINE
  5
121
100
AcDbEntity
  8
Layer_1
 62
7
100
AcDbPolyline
 90
4
 70
1
 10
970.000025
 20
-330.000000
 30
0.0
 10
1030.000033
 20
-330.000000
 30
0.0
 10
1030.000033
 20
-509.999985
 30
0.0
 10
970.000025
 20
-509.999985
 30
0.0
  0
LWPOLYLINE
  5
122
100
AcDbEntity
  8
Layer_1
 62
1
100
AcDbPolyline
 90
4
 70
1
 10
909.999987
 20
-330.000000
 30
0.0
 10
969.999987
 20
-330.000000
 30
0.0
 10
969.999987
 20
-529.999990
 30
0.0
 10
909.999987
 20
-529.999990
 30
0.0
  0
LWPOLYLINE
  5
123
100
AcDbEntity
  8
Layer_1
 62
1
100
AcDbPolyline
 90
5
 70
1
 10
254.000000
 20
27.437450
 30
0.0
 10
282.045200
 20
27.437450
 30
0.0
 10
290.269750
 20
22.410660
 30
0.0
 10
282.045200
 20
17.383290
 30
0.0
 10
254.000000
 20
17.383290
 30
0.0
  0
LWPOLYLINE
  5
124
100
AcDbEntity
  8
Layer_1
 62
1
100
AcDbPolyline
 90
5
 70
1
 10
254.000000
 20
40.666610
 30
0.0
 10
282.045200
 20
40.666610
 30
0.0
 10
290.269750
 20
35.639820
 30
0.0
 10
282.045200
 20
30.612450
 30
0.0
 10
254.000000
 20
30.612450
 30
0.0
  0
LWPOLYLINE
  5
125
100
AcDbEntity
  8
Layer_1
 62
1
100
AcDbPolyline
 90
5
 70
1
 10
254.000000
 20
64.479160
 30
0.0
 10
282.045200
 20
64.479160
 30
0.0
 10
290.269750
 20
59.452370
 30
0.0
 10
282.045200
 20
54.425000
 30
0.0
 10
254.000000
 20
54.425000
 30
0.0
  0
SPLINE
  5
126
100
AcDbEntity
  8
Layer_1
 62
1
100
AcDbSpline
 70
0
 71
3
 72
10
 73
6
 74
4
 40
0.000000
 40
0.000000
 40
0.000000
 40
0.000000
 40
9.995371
 40
12.935185
 40
15.875000
 40
15.875000
 40
15.875000
 40
15.875000
 10
37.041667
 20
14.208330
 30
0.0
 10
40.373457
 20
14.208330
 30
0.0
 10
44.685186
 20
14.208330
 30
0.0
 10
49.976852
 20
14.208330
 30
0.0
 10
51.936729
 20
14.208330
 30
0.0
 10
52.916667
 20
14.208330
 30
0.0
 11
37.041667
 21
14.208330
 31
0.0
 11
47.037038
 21
14.208330
 31
0.0
 11
49.976852
 21
14.208330
 31
0.0
 11
52.916667
 21
14.208330
 31
0.0
  0
SPLINE
  5
127
100
AcDbEntity
  8
Layer_1
 62
1
100
AcDbSpline
 70
0
 71
3
 72
10
 73
6
 74
4
 40
0.000000
 40
0.000000
 40
0.000000
 40
0.000000
 40
9.995370
 40
12.935184
 40
15.875000
 40
15.875000
 40
15.875000
 40
15.875000
 10
209.020900
 20
67.125000
 30
0.0
 10
212.352690
 20
67.125000
 30
0.0
 10
216.664418
 20
67.125000
 30
0.0
 10
221.956084
 20
67.125000
 30
0.0
 10
223.915961
 20
67.125000
 30
0.0
 10
224.895900
 20
67.125000
 30
0.0
 11
209.020900
 21
67.125000
 31
0.0
 11
219.016270
 21
67.125000
 31
0.0
 11
221.956084
 21
67.125000
 31
0.0
 11
224.895900
 21
67.125000
 31
0.0
  0
LWPOLYLINE
  5
128
100
AcDbEntity
  8
Layer_1
 62
1
100
AcDbPolyline
 90
5
 70
1
 10
254.000000
 20
80.354180
 30
0.0
 10
282.045200
 20
80.354180
 30
0.0
 10
290.269750
 20
75.327390
 30
0.0
 10
282.045200
 20
70.300020
 30
0.0
 10
254.000000
 20
70.300020
 30
0.0
  0
ENDSEC
  0
SECTION
  2
OBJECTS
  0
DICTIONARY
  5
C
330
0
100
AcDbDictionary
  3
ACAD_GROUP
350
D
  3
ACAD_MLINESTYLE
350
17
  0
DICTIONARY
  5
D
330
C
100
AcDbDictionary
  0
DICTIONARY
  5
1A
330
C
100
AcDbDictionary
  0
DICTIONARY
  5
17
330
C
100
AcDbDictionary
  3
STANDARD
350
18
  0
DICTIONARY
  5
19
330
C
100
AcDbDictionary
  0
ENDSEC
  0
EOF
